<svg xmlns="http://www.w3.org/2000/svg" width="1600" height="900" viewBox="0 0 1600 900">
  <defs>
    <linearGradient id="bg" x1="0" y1="0" x2="1" y2="1">
      <stop offset="0%" stop-color="#a9c8e6"/>
      <stop offset="55%" stop-color="#99c9df"/>
      <stop offset="100%" stop-color="#9b88e8"/>
    </linearGradient>
    <filter id="blur" x="-35%" y="-35%" width="170%" height="170%">
      <feGaussianBlur stdDeviation="110"/>
    </filter>
  </defs>

  <rect width="1600" height="900" fill="url(#bg)"/>

  <path d="M-180 20 C140 -40 430 40 620 200 C720 286 734 430 654 560 C568 702 402 806 190 930 C-26 1054 -250 1126 -332 1008 C-444 846 -442 144 -180 20 Z" fill="#ebb0cf" filter="url(#blur)" opacity="0.96"/>

  <path d="M252 664 C446 636 636 708 822 854 C950 954 870 1026 658 1038 C436 1052 212 986 134 866 C84 788 128 686 252 664 Z" fill="#e9e0d0" filter="url(#blur)" opacity="0.9"/>

  <path d="M1376 554 C1560 532 1706 664 1732 818 C1756 968 1646 1076 1480 1090 C1292 1104 1138 992 1138 828 C1138 694 1228 574 1376 554 Z" fill="#a08df4" filter="url(#blur)" opacity="0.72"/>

  <path d="M1128 -122 C1324 -116 1498 -46 1622 78 C1712 170 1658 264 1518 296 C1348 336 1142 274 1036 162 C976 98 1012 -118 1128 -122 Z" fill="#a7b2ef" filter="url(#blur)" opacity="0.62"/>
</svg>