<svg xmlns="http://www.w3.org/2000/svg" width="320" height="200" viewBox="0 0 320 200">
  <defs>
    <clipPath id="clip">
      <rect x="0" y="0" width="320" height="200" rx="16" ry="16"/>
    </clipPath>
    <linearGradient id="bg" x1="0" y1="0" x2="1" y2="1">
      <stop offset="0%" stop-color="#a9c8e6"/>
      <stop offset="55%" stop-color="#99c9df"/>
      <stop offset="100%" stop-color="#9b88e8"/>
    </linearGradient>
    <filter id="blur" x="-30%" y="-30%" width="160%" height="160%">
      <feGaussianBlur stdDeviation="20"/>
    </filter>
  </defs>
  <g clip-path="url(#clip)">
    <rect width="320" height="200" fill="url(#bg)"/>
    <path d="M-30 6 C40 0 98 18 128 40 C146 53 152 84 140 112 C128 140 94 164 52 188 C12 212 -34 228 -46 202 C-64 164 -62 28 -30 6 Z" fill="#ebb0cf" filter="url(#blur)" opacity="0.96"/>
    <path d="M42 156 C84 152 118 168 148 192 C172 212 152 226 110 228 C66 230 26 214 16 190 C10 176 20 160 42 156 Z" fill="#e9e0d0" filter="url(#blur)" opacity="0.9"/>
    <path d="M278 132 C316 128 346 154 350 186 C354 216 330 234 296 236 C258 238 228 216 228 182 C228 154 246 136 278 132 Z" fill="#a08df4" filter="url(#blur)" opacity="0.72"/>
    <path d="M232 -26 C276 -24 316 -8 342 18 C362 38 350 58 318 64 C278 72 228 58 204 28 C190 10 202 -24 232 -26 Z" fill="#a7b2ef" filter="url(#blur)" opacity="0.62"/>
  </g>
</svg>
