<?xml version="1.0" encoding="UTF-8"?>
<!-- Generated by Pixelmator Pro 4.0 -->
<svg width="400" height="400" viewBox="0 0 400 400" xmlns="http://www.w3.org/2000/svg">
    <g id="Group">
        <g id="g1" style="mix-blend-mode:multiply">
            <linearGradient id="linearGradient1" x1="97.942286" y1="140" x2="57.749907" y2="290" gradientUnits="userSpaceOnUse">
                <stop offset="1e-05" stop-color="#ff3b30" stop-opacity="1"/>
                <stop offset="1" stop-color="#ff9500" stop-opacity="1"/>
            </linearGradient>
            <path id="Path" fill="url(#linearGradient1)" stroke="none" opacity="0.85" d="M 132.942291 140 L 132.942291 140 C 152.272263 140 163.743515 155.670029 158.564072 175 L 137.128128 255 C 131.948685 274.329956 112.079872 290 92.749908 290 L 92.749908 290 C 73.419945 290 61.948681 274.329956 67.128128 255 L 88.564064 175 C 93.743515 155.670029 113.61232 140 132.942291 140 Z"/>
            <linearGradient id="linearGradient2" x1="160.980762" y1="110" x2="120.788383" y2="260" gradientUnits="userSpaceOnUse">
                <stop offset="1e-05" stop-color="#ffcc00" stop-opacity="1"/>
                <stop offset="1" stop-color="#4cd964" stop-opacity="1"/>
            </linearGradient>
            <path id="path1" fill="url(#linearGradient2)" stroke="none" opacity="0.85" d="M 195.980759 110 L 195.980759 110 C 215.31073 110 226.781982 125.670044 221.602539 145 L 200.166611 225 C 194.987152 244.329971 175.118347 260 155.788376 260 L 155.788376 260 C 136.45842 260 124.987152 244.329971 130.166595 225 L 151.602539 145 C 156.781982 125.670044 176.650803 110 195.980759 110 Z"/>
            <linearGradient id="linearGradient3" x1="207.942286" y1="140" x2="167.749907" y2="290" gradientUnits="userSpaceOnUse">
                <stop offset="1e-05" stop-color="#5ac8fa" stop-opacity="1"/>
                <stop offset="1" stop-color="#007aff" stop-opacity="1"/>
            </linearGradient>
            <path id="path2" fill="url(#linearGradient3)" stroke="none" opacity="0.85" d="M 242.942291 140 L 242.942291 140 C 262.272278 140 273.74353 155.670029 268.564087 175 L 247.128128 255 C 241.948685 274.329956 222.07988 290 202.749908 290 L 202.749908 290 C 183.419937 290 171.948685 274.329956 177.128128 255 L 198.564072 175 C 203.743515 155.670029 223.61232 140 242.942291 140 Z"/>
            <linearGradient id="linearGradient4" x1="270.980762" y1="110" x2="230.788383" y2="260" gradientUnits="userSpaceOnUse">
                <stop offset="1e-05" stop-color="#5856d6" stop-opacity="1"/>
                <stop offset="1" stop-color="#af52de" stop-opacity="1"/>
            </linearGradient>
            <path id="path3" fill="url(#linearGradient4)" stroke="none" opacity="0.85" d="M 305.980774 110 L 305.980774 110 C 325.31073 110 336.781982 125.670044 331.602539 145 L 310.166595 225 C 304.987152 244.329971 285.118347 260 265.788361 260 L 265.788361 260 C 246.458405 260 234.987152 244.329971 240.166611 225 L 261.602539 145 C 266.781982 125.670044 286.650787 110 305.980774 110 Z"/>
        </g>
    </g>
</svg>
